<?xml version="1.0" encoding="iso-8859-1"?>
<!-- Uploaded to: SVG Repo, www.svgrepo.com, Generator: SVG Repo Mixer Tools -->
<svg fill="#000000" height="800px" width="800px" version="1.1" id="Layer_1" xmlns="http://www.w3.org/2000/svg" xmlns:xlink="http://www.w3.org/1999/xlink" 
	 viewBox="0 0 512 512" xml:space="preserve">
<g>
	<g>
		<path d="M376.036,75.312c-10.182-36.169-20.23-63.297-20.652-64.433L351.34,0H160.679l-4.045,10.876
			c-0.423,1.136-10.473,28.264-20.66,64.434c-13.844,49.156-20.863,89.528-20.863,119.992c0,35.448,20.156,70.053,56.757,97.441
			c21.325,15.957,46.827,28.188,67.444,32.927v152.939h-59.364V512h152.104v-33.391h-59.349v-152.94
			c20.612-4.739,46.109-16.969,67.43-32.926c36.599-27.389,56.755-61.994,56.755-97.441
			C396.89,164.838,389.874,124.467,376.036,75.312z M184.084,33.391h143.85c8.314,24.15,27.679,84.036,33.725,134.254H150.344
			C156.393,117.427,175.765,57.54,184.084,33.391z M320.128,266.008c-25.903,19.385-53.574,28.416-64.119,28.416
			c-10.551,0-38.229-9.031-64.132-28.416c-33.201-24.844-41.551-49.639-43.079-64.972h214.409
			C361.677,216.369,353.327,241.163,320.128,266.008z"/>
	</g>
</g>
</svg>